HIERARCHY
ROOT Hips
{
  OFFSET 1.44925e-005 102.336 -0.101585
  CHANNELS 6 Xposition Yposition Zposition Zrotation Xrotation Yrotation
  JOINT LeftUpLeg
  {
    OFFSET 8.9458 -8.66707 0.101652
    CHANNELS 3 Zrotation Xrotation Yrotation
    JOINT LeftLeg
    {
      OFFSET 0 -44.4227 1.3727
      CHANNELS 3 Zrotation Xrotation Yrotation
      JOINT LeftFoot
      {
        OFFSET -0.253549 -42.0924 -1.46059
        CHANNELS 3 Zrotation Xrotation Yrotation
        JOINT LeftToes
        {
          OFFSET -0.04 -4.41509 8.4991
          CHANNELS 3 Zrotation Xrotation Yrotation
          End Site
          {
            OFFSET 0.08 -0.047448 9.77979
          }
        }
      }
    }
  }
  JOINT Spine
  {
    OFFSET 0 11.8905 0
    CHANNELS 3 Zrotation Xrotation Yrotation
    JOINT Spine1
    {
      OFFSET 0 25.6574 0.127663
      CHANNELS 3 Zrotation Xrotation Yrotation
      JOINT RightShoulder
      {
        OFFSET -8.99 -0.362252 -0.22
        CHANNELS 3 Zrotation Xrotation Yrotation
        JOINT RightArm
        {
          OFFSET -10.2827 -0.00338 0.322123
          CHANNELS 3 Zrotation Xrotation Yrotation
          JOINT RightForeArm
          {
            OFFSET -26.364 0.099144 -1.42434
            CHANNELS 3 Zrotation Xrotation Yrotation
            JOINT RightHand
            {
              OFFSET -22.0324 0.085362 1.02216
              CHANNELS 3 Zrotation Xrotation Yrotation
              End Site
              {
                OFFSET -13.3284 -0.6 1.50291
              }
            }
          }
        }
      }
      JOINT LeftShoulder1
      {
        OFFSET 8.99 -0.362252 -0.22
        CHANNELS 3 Zrotation Xrotation Yrotation
        JOINT LeftArm
        {
          OFFSET 10.2827 -0.00337999 0.322123
          CHANNELS 3 Zrotation Xrotation Yrotation
          JOINT LeftForeArm
          {
            OFFSET 26.2597 0.099144 -1.42434
            CHANNELS 3 Zrotation Xrotation Yrotation
            JOINT LeftHand
            {
              OFFSET 22.0902 0.085362 1.02216
              CHANNELS 3 Zrotation Xrotation Yrotation
              End Site
              {
                OFFSET 13.419 -0.6 1.50291
              }
            }
          }
        }
      }
      JOINT Head
      {
        OFFSET 0 8.73416 0.011341
        CHANNELS 3 Zrotation Xrotation Yrotation
        End Site
        {
          OFFSET -0.29 12.7742 2.51395
        }
      }
    }
  }
  JOINT RightUpLeg
  {
    OFFSET -8.9458 -8.66707 0.101652
    CHANNELS 3 Zrotation Xrotation Yrotation
    JOINT RightLeg
    {
      OFFSET 0 -44.4227 1.3727
      CHANNELS 3 Zrotation Xrotation Yrotation
      JOINT RightFoot
      {
        OFFSET 0.253549 -42.0924 -1.46059
        CHANNELS 3 Zrotation Xrotation Yrotation
        JOINT RightToes
        {
          OFFSET 0.04 -4.41509 8.4991
          CHANNELS 3 Zrotation Xrotation Yrotation
          End Site
          {
            OFFSET -0.08 -0.137448 9.77979
          }
        }
      }
    }
  }
}
MOTION
Frames:	21
Frame Time:	0.0333333
188.962 103.016 5.7625 -5.45309 -1.05273 -88.6755 -1.39552 3.10657 2.15605 -0.192902 8.41741 18.0341 -2.38013 -10.7071 -0.0116811 -1.31331e-009 8.75241e-006 -1.47864e-008 2.76061 7.77865 -0.243948 -3.03016 -2.25461 0.452437 38.5754 1.76955 -0.0355785 39.2358 -16.9392 4.20832 7.14681 37.6821 9.78419 -9.11134 9.35761 2.12701 -44.4368 3.59692 -3.52453 -29.2136 -11.2654 0.79424 -4.28071 37.401 -14.6367 5.82328 9.61819 -0.917488 0.825416 -1.65938 -5.64436 -1.42915 4.70259 -5.54117 0.844479 10.3153 -14.1049 3.06172 -13.9557 -0.0369927 0.0462048 0.000530889 0.662642 
188.967 103.011 5.75361 -5.4506 -1.07101 -88.6417 -1.41873 3.08981 2.12149 -0.175403 8.43231 18.0525 -2.42339 -10.716 -0.0116814 -1.31331e-009 8.75241e-006 -1.47864e-008 2.70855 7.62155 -0.225905 -2.99171 -2.02209 0.469503 38.5986 1.76955 -0.0367372 39.2447 -17.033 4.33826 7.19642 37.7904 9.69066 -9.04929 9.35746 2.19901 -44.4368 3.59692 -3.52453 -29.1999 -11.5458 0.645031 -4.41136 37.6266 -14.4316 5.82328 9.61819 -0.917488 0.586057 -2.09241 -5.53037 -1.44868 4.6757 -5.57015 0.860514 10.3737 -14.1134 3.0801 -13.9911 -0.0369984 0.0462048 0.000530889 0.662642 
188.974 103.007 5.74294 -5.43182 -1.10719 -88.6079 -1.46782 3.06724 2.05822 -0.148779 8.42037 18.1058 -2.47593 -10.702 -0.0116809 -1.31331e-009 8.75241e-006 -1.47864e-008 2.6304 7.42178 -0.186861 -2.95426 -1.7568 0.508352 38.6022 1.76865 -0.0408782 39.285 -17.2149 4.48007 7.32529 37.7468 9.51385 -9.16191 9.36178 2.03233 -44.4385 3.59692 -3.52453 -29.1806 -11.8628 0.480705 -4.5611 37.9289 -14.189 5.82328 9.61819 -0.917488 0.171727 -2.7153 -5.33351 -1.49196 4.61796 -5.61602 0.881867 10.461 -14.1057 3.06853 -14.0215 -0.0370033 0.0462048 0.000530889 0.662642 
188.977 103.004 5.73496 -5.40464 -1.12632 -88.5964 -1.49357 3.04845 2.0223 -0.133682 8.3923 18.1457 -2.48737 -10.6734 -0.0116798 -1.31331e-009 8.75241e-006 -1.47864e-008 2.59011 7.3649 -0.137658 -2.94752 -1.71469 0.55753 38.5156 1.76439 -0.043383 39.3912 -17.4413 4.47836 7.44122 37.5616 9.36854 -9.41385 9.3742 1.63753 -44.4378 3.59692 -3.52453 -29.1872 -11.8892 0.471865 -4.62571 37.9856 -14.1081 5.82328 9.61819 -0.917488 -0.322748 -3.34862 -5.16166 -1.51321 4.58144 -5.63286 0.890662 10.4811 -14.0955 3.05098 -14.0269 -0.0370041 0.0462048 0.000530889 0.662642 
188.975 103.002 5.72458 -5.39839 -1.11604 -88.5896 -1.47474 3.03676 2.03364 -0.13033 8.40091 18.1332 -2.50315 -10.6666 -0.0116795 -1.31331e-009 8.75241e-006 -1.47864e-008 2.60875 7.44293 -0.0995347 -2.98887 -1.82505 0.601089 38.3974 1.75937 -0.0464557 39.5191 -17.6239 4.38399 7.47788 37.4498 9.31318 -9.54954 9.3859 1.36709 -44.4048 3.59608 -3.52453 -29.2208 -11.7647 0.569978 -4.64919 37.8516 -14.1193 5.82328 9.61819 -0.917488 -0.725898 -3.80344 -5.11143 -1.49012 4.59637 -5.61081 0.884357 10.435 -14.1109 3.07157 -14.0274 -0.0370042 0.0462048 0.000530889 0.662642 
188.979 103.001 5.71024 -5.41669 -1.10411 -88.5685 -1.44978 3.02595 2.05131 -0.124144 8.45792 18.0924 -2.57779 -10.6824 -0.0116801 -1.31331e-009 8.75241e-006 -1.47864e-008 2.65074 7.52358 -0.0847698 -3.07908 -1.89557 0.631278 38.375 1.75768 -0.0513943 39.5556 -17.6138 4.30345 7.50046 37.2104 9.33117 -9.61804 9.39494 1.19323 -44.3402 3.59125 -3.52451 -29.2368 -11.7749 0.635562 -4.6826 37.8611 -14.082 5.82328 9.61819 -0.917488 -0.965355 -4.04214 -5.0762 -1.45912 4.62396 -5.58382 0.879167 10.4165 -14.1499 3.10945 -14.0364 -0.0370057 0.0462048 0.000530889 0.662642 
188.988 103 5.6983 -5.43885 -1.10959 -88.5342 -1.44866 3.01631 2.04532 -0.112205 8.51786 18.0562 -2.66254 -10.6914 -0.0116805 -1.31331e-009 8.75241e-006 -1.47864e-008 2.66979 7.55964 -0.0834715 -3.17236 -1.90835 0.64964 38.4695 1.75734 -0.0583086 39.4358 -17.3561 4.21661 7.55613 36.5754 9.42259 -9.81177 9.41549 0.780422 -44.282 3.58247 -3.52448 -29.2257 -11.9393 0.64509 -4.72109 38.1521 -13.9751 5.82328 9.61819 -0.917488 -1.24394 -4.34219 -5.15144 -1.45154 4.6318 -5.57754 0.877073 10.4558 -14.1881 3.11518 -14.0482 -0.0370076 0.0462048 0.000530889 0.662642 
188.994 102.999 5.69479 -5.45979 -1.11294 -88.506 -1.44909 3.02194 2.03931 -0.106011 8.54359 18.0286 -2.67429 -10.6901 -0.0116804 -1.31331e-009 8.75241e-006 -1.47864e-008 2.65766 7.62408 -0.0828791 -3.20935 -1.97146 0.656241 38.5858 1.75742 -0.0654152 39.2206 -17.0462 4.0758 7.55329 35.9895 9.58498 -9.92925 9.45238 0.216852 -44.2429 3.57648 -3.52475 -29.2424 -12.1088 0.686287 -4.75328 38.5216 -13.8606 5.82328 9.61819 -0.917488 -1.67569 -4.74919 -5.44282 -1.44953 4.64323 -5.58262 0.881121 10.4878 -14.2046 3.08823 -14.0541 -0.0370085 0.0462048 0.000530889 0.662642 
188.999 102.999 5.69897 -5.48505 -1.10138 -88.5095 -1.43689 3.04077 2.05069 -0.110403 8.54766 18.0266 -2.62698 -10.7013 -0.0116809 -1.31331e-009 8.75241e-006 -1.47864e-008 2.62839 7.72754 -0.0786927 -3.18485 -2.06201 0.656148 38.6477 1.75699 -0.0708776 39.0487 -16.9766 3.96582 7.42264 36.1498 9.72339 -9.63577 9.48421 -0.0148051 -44.2149 3.5748 -3.52549 -29.2972 -12.2474 0.776261 -4.78846 38.7717 -13.7661 5.82328 9.61819 -0.917488 -2.14456 -5.25932 -5.68297 -1.44839 4.66061 -5.58868 0.885977 10.4989 -14.1891 3.06514 -14.0532 -0.0370084 0.0462048 0.000530889 0.662642 
189.01 102.998 5.70641 -5.50321 -1.0996 -88.554 -1.44101 3.04802 2.05696 -0.123674 8.55874 18.0747 -2.59605 -10.7247 -0.0116818 -1.31331e-009 8.75241e-006 -1.47864e-008 2.58002 7.78115 -0.0635528 -3.13488 -2.05864 0.665459 38.6254 1.75502 -0.0735584 39.0335 -17.1401 3.97093 7.27078 36.8067 9.75821 -9.19749 9.49237 0.156484 -44.2302 3.57724 -3.5266 -29.3076 -12.3777 0.826129 -4.84785 38.9091 -13.6654 5.82328 9.61819 -0.917488 -2.32138 -5.62858 -5.64532 -1.45714 4.64195 -5.60202 0.881191 10.5454 -14.1426 3.05502 -14.0557 -0.0370088 0.0462048 0.000530889 0.662642 
189.023 102.999 5.71475 -5.5053 -1.11981 -88.6128 -1.46851 3.03833 2.05031 -0.142181 8.58154 18.1362 -2.60267 -10.7372 -0.0116822 -1.31331e-009 8.75241e-006 -1.47864e-008 2.50056 7.78182 -0.037486 -3.05552 -1.99418 0.680183 38.4896 1.75102 -0.0723059 39.1718 -17.1966 4.00111 7.22644 37.0405 9.76033 -9.17738 9.48413 0.286464 -44.3411 3.58695 -3.52951 -29.2163 -12.4404 0.811258 -4.95097 38.9738 -13.5371 5.82328 9.61819 -0.917488 -2.193 -5.63102 -5.47245 -1.49027 4.59838 -5.6209 0.86791 10.6097 -14.0832 3.04415 -14.0658 -0.0370104 0.0462048 0.000530889 0.662642 
189.03 102.999 5.72536 -5.50694 -1.12437 -88.6446 -1.47271 3.02909 2.05831 -0.152566 8.61132 18.1434 -2.61549 -10.7413 -0.0116824 -1.31331e-009 8.75241e-006 -1.47864e-008 2.39943 7.84767 -0.0314725 -2.90287 -2.03685 0.65635 38.2781 1.74661 -0.0655786 39.3242 -16.9866 3.95022 7.27074 36.7106 9.79896 -9.49248 9.47702 0.176234 -44.5365 3.60595 -3.53705 -29.0709 -12.4098 0.836565 -5.06834 38.9421 -13.4201 5.82328 9.61819 -0.917488 -2.14275 -5.45876 -5.39837 -1.50679 4.59583 -5.62864 0.866548 10.6063 -14.0413 3.04177 -14.0679 -0.0370108 0.0462048 0.000530889 0.662642 
189.04 103 5.73979 -5.51477 -1.07792 -88.6485 -1.42635 3.00714 2.08908 -0.152923 8.66089 18.1093 -2.61246 -10.7652 -0.0116833 -1.31331e-009 8.75241e-006 -1.47864e-008 2.3166 8.01696 -0.0751022 -2.7081 -2.22863 0.570761 38.1583 1.7468 -0.0540022 39.3343 -16.8007 3.89215 7.3509 36.5515 9.75239 -9.56576 9.48119 0.0924319 -44.7269 3.62736 -3.54993 -28.9452 -12.3901 0.961673 -5.11004 38.8827 -13.3889 5.82328 9.61819 -0.917488 -2.28112 -5.46063 -5.3715 -1.4724 4.62484 -5.61178 0.886209 10.5434 -14.0418 3.05785 -14.0362 -0.0370056 0.0462048 0.000530889 0.662642 
189.064 103.001 5.75601 -5.50578 -1.00847 -88.6766 -1.36852 2.94461 2.11758 -0.142575 8.72799 18.1163 -2.58383 -10.808 -0.011685 -1.31331e-009 8.75241e-006 -1.47864e-008 2.30789 8.1914 -0.140057 -2.63196 -2.45788 0.485641 38.275 1.75508 -0.0451663 39.1831 -16.8982 3.90717 7.4804 36.8354 9.519 -9.34508 9.48213 0.198731 -44.7841 3.63431 -3.55479 -28.894 -12.4747 1.08097 -5.05422 38.975 -13.4261 5.82328 9.61819 -0.917488 -2.16066 -5.49026 -5.23507 -1.41029 4.60103 -5.56499 0.895507 10.5162 -14.0701 3.06504 -13.9883 -0.0369979 0.0462048 0.000530889 0.662642 
189.089 103.002 5.77313 -5.47089 -0.975284 -88.7639 -1.35165 2.87914 2.12971 -0.149054 8.75427 18.1933 -2.52866 -10.8286 -0.0116858 -1.31331e-009 8.75241e-006 -1.47864e-008 2.40873 8.32477 -0.171195 -2.82182 -2.68549 0.484179 38.5761 1.76411 -0.0493623 38.9735 -17.07 3.8707 7.61942 37.0668 9.2807 -9.33077 9.47181 0.352804 -44.6157 3.61248 -3.53779 -28.9723 -12.6173 1.08397 -5.03418 39.2256 -13.389 5.82328 9.61819 -0.917488 -1.44978 -5.06044 -5.02993 -1.37851 4.51597 -5.50572 0.863984 10.5488 -14.0544 3.05573 -13.9765 -0.036996 0.0462048 0.000530889 0.662642 
189.093 103.004 5.79776 -5.43662 -0.995957 -88.8726 -1.3866 2.88425 2.12944 -0.181743 8.68199 18.2864 -2.46765 -10.8029 -0.0116848 -1.31331e-009 8.75241e-006 -1.47864e-008 2.58875 8.47209 -0.16966 -3.22361 -2.96217 0.553535 38.8965 1.76871 -0.0648998 38.7737 -17.0327 3.64534 7.64304 37.0686 9.26334 -9.55784 9.45408 0.440405 -44.2925 3.5694 -3.50247 -29.1379 -12.6491 1.02312 -5.15164 39.3338 -13.235 5.82328 9.61819 -0.917488 -0.412711 -4.20995 -4.8336 -1.42031 4.45146 -5.49399 0.826223 10.5842 -13.936 3.08447 -14.0005 -0.0369999 0.0462048 0.000530889 0.662642 
189.078 103.005 5.83433 -5.42225 -1.04071 -88.938 -1.44666 2.94982 2.12351 -0.22361 8.55307 18.3419 -2.40393 -10.7585 -0.0116831 -1.31331e-009 8.75241e-006 -1.47864e-008 2.75612 8.61957 -0.174608 -3.61045 -3.21291 0.613821 39.1302 1.77072 -0.0798565 38.5967 -16.871 3.34078 7.52639 37.1882 9.41046 -9.52869 9.45303 0.474316 -44.0696 3.53443 -3.46741 -29.1752 -12.3446 0.986564 -5.26933 38.9932 -13.1883 5.82328 9.61819 -0.917488 0.607359 -3.55691 -4.50132 -1.52394 4.43943 -5.57168 0.841916 10.6004 -13.7713 3.1585 -14.0125 -0.0370018 0.0462048 0.000530889 0.662642 
189.069 103.003 5.8705 -5.42124 -1.07447 -88.9584 -1.49174 2.99512 2.1339 -0.267563 8.47732 18.3532 -2.30974 -10.743 -0.0116825 -1.31331e-009 8.75241e-006 -1.47864e-008 2.82816 8.67134 -0.167645 -3.79335 -3.2463 0.652995 39.1994 1.77039 -0.0853614 38.5263 -16.7293 3.17255 7.40442 37.3514 9.54595 -9.28945 9.46911 0.419561 -44.1428 3.53121 -3.45007 -28.9316 -11.6479 0.903656 -5.19932 38.2786 -13.4516 5.82328 9.61819 -0.917488 1.53958 -3.35946 -3.93996 -1.61531 4.43593 -5.6675 0.886732 10.6189 -13.6824 3.1731 -14.0267 -0.0370041 0.0462048 0.000530889 0.662642 
189.077 102.992 5.89145 -5.42848 -1.09485 -88.9933 -1.51152 2.99306 2.16667 -0.310316 8.49624 18.3618 -2.23061 -10.7775 -0.0119583 -1.31331e-009 8.75241e-006 -1.47864e-008 2.78587 8.63652 -0.0854658 -3.74319 -3.04047 0.730352 38.9812 1.76525 -0.0792668 38.7171 -16.5386 3.19324 7.41629 37.1228 9.59691 -9.50387 9.46987 0.263959 -44.4354 3.55735 -3.45741 -28.5439 -10.9225 0.656307 -5.00798 37.6045 -13.849 5.82328 9.61819 -0.917488 2.10742 -3.20774 -3.45799 -1.63869 4.40092 -5.66486 0.866359 10.679 -13.6813 3.09587 -14.1108 -0.0371687 0.0462048 0.000530889 0.662642 
189.091 102.976 5.90904 -5.43367 -1.13291 -89.0674 -1.56343 2.95694 2.15292 -0.31885 8.58382 18.4442 -2.31761 -10.8631 -0.0153031 -1.31331e-009 8.75241e-006 -1.47864e-008 2.67157 8.62639 0.0660491 -3.56314 -2.80746 0.855263 38.4865 1.75372 -0.0653131 39.1555 -16.3869 3.31442 7.55005 36.7531 9.51675 -10.171 9.443 0.187514 -44.7575 3.59538 -3.48327 -28.2139 -10.6226 0.310522 -4.88865 37.2813 -14.0704 5.82328 9.61819 -0.917488 1.84417 -2.82826 -3.42878 -1.65279 4.2899 -5.58379 0.759954 10.8818 -13.6554 3.09291 -14.2656 -0.0342789 0.0462048 0.000530889 0.662642 
189.099 102.951 5.95368 -5.41223 -1.20489 -89.1538 -1.70166 2.83702 2.02772 -0.268679 8.80163 18.6459 -2.64461 -11.0337 -0.0275667 -1.31331e-009 8.75241e-006 -1.47864e-008 2.6036 8.68119 0.201632 -3.46403 -2.71737 0.978971 38.0354 1.74472 -0.0490284 39.5271 -16.523 3.45612 7.65972 36.8729 9.32819 -10.397 9.41984 0.341296 -45.0211 3.62873 -3.50837 -27.9282 -10.6357 0.0410628 -4.86704 37.2025 -14.1136 5.82328 9.61819 -0.917488 1.06664 -2.65169 -3.70051 -1.75239 4.05332 -5.55593 0.651456 11.3134 -13.5363 3.28511 -14.4593 -0.0185761 0.0462048 0.000530889 0.662642 
